<svg width="5" height="9" viewBox="0 0 5 9" fill="none" xmlns="http://www.w3.org/2000/svg">
<path d="M4.86424 4.58747L1.07685 8.3748C0.989247 8.46247 0.872312 8.51077 0.747626 8.51077C0.622941 8.51077 0.506006 8.46247 0.418408 8.3748L0.139492 8.09596C-0.0419999 7.91426 -0.0419999 7.61894 0.139492 7.43752L3.31986 4.25715L0.135964 1.07325C0.0483657 0.985581 0 0.868715 0 0.744099C0 0.619344 0.0483657 0.502478 0.135964 0.414742L0.414879 0.135964C0.502546 0.0482969 0.619413 9.53674e-07 0.744098 9.53674e-07C0.868783 9.53674e-07 0.985718 0.0482969 1.07332 0.135964L4.86424 3.92675C4.95205 4.0147 5.00028 4.13212 5 4.25694C5.00028 4.38225 4.95205 4.4996 4.86424 4.58747Z" fill="white"/>
</svg>
