<svg width="20" height="20" viewBox="0 0 20 20" fill="none" xmlns="http://www.w3.org/2000/svg">
<rect width="20" height="20" rx="3" fill="#C05766"/>
<path d="M5.95512 14.4544C5.70809 14.4688 5.46515 14.3866 5.27753 14.2253C4.90749 13.8531 4.90749 13.2519 5.27753 12.8797L13.3801 4.77706C13.765 4.41692 14.3689 4.43694 14.729 4.82181C15.0547 5.16985 15.0737 5.70479 14.7735 6.07502L6.62316 14.2253C6.43795 14.3843 6.19891 14.4663 5.95512 14.4544Z" fill="white"/>
<path d="M14.048 14.4546C13.7977 14.4535 13.5577 14.3541 13.38 14.1778L5.27733 6.07515C4.93451 5.67482 4.98112 5.07234 5.38146 4.72949C5.73876 4.4235 6.26572 4.4235 6.623 4.72949L14.7733 12.8321C15.1581 13.1923 15.178 13.7963 14.8178 14.1811C14.8034 14.1964 14.7886 14.2112 14.7733 14.2255C14.5738 14.3991 14.3111 14.482 14.048 14.4546Z" fill="white"/>
</svg>
