<svg width="31" height="31" viewBox="0 0 31 31" fill="none" xmlns="http://www.w3.org/2000/svg">
<rect width="31" height="31" rx="15.5" fill="#FB7185"/>
<path d="M19.875 12.375C19.7092 12.375 19.5503 12.4408 19.4331 12.5581C19.3158 12.6753 19.25 12.8342 19.25 13V19.9944C19.2321 20.3104 19.09 20.6066 18.8547 20.8184C18.6194 21.0301 18.3099 21.1403 17.9937 21.125H13.0063C12.6901 21.1403 12.3806 21.0301 12.1453 20.8184C11.91 20.6066 11.7679 20.3104 11.75 19.9944V13C11.75 12.8342 11.6842 12.6753 11.5669 12.5581C11.4497 12.4408 11.2908 12.375 11.125 12.375C10.9592 12.375 10.8003 12.4408 10.6831 12.5581C10.5658 12.6753 10.5 12.8342 10.5 13V19.9944C10.5178 20.642 10.7916 21.2562 11.2614 21.7024C11.7311 22.1486 12.3585 22.3905 13.0063 22.375H17.9937C18.6415 22.3905 19.2689 22.1486 19.7386 21.7024C20.2084 21.2562 20.4822 20.642 20.5 19.9944V13C20.5 12.8342 20.4342 12.6753 20.3169 12.5581C20.1997 12.4408 20.0408 12.375 19.875 12.375Z" fill="white"/>
<path d="M20.5 10.5H18V9.25C18 9.08424 17.9342 8.92527 17.8169 8.80806C17.6997 8.69085 17.5408 8.625 17.375 8.625H13.625C13.4592 8.625 13.3003 8.69085 13.1831 8.80806C13.0658 8.92527 13 9.08424 13 9.25V10.5H10.5C10.3342 10.5 10.1753 10.5658 10.0581 10.6831C9.94085 10.8003 9.875 10.9592 9.875 11.125C9.875 11.2908 9.94085 11.4497 10.0581 11.5669C10.1753 11.6842 10.3342 11.75 10.5 11.75H20.5C20.6658 11.75 20.8247 11.6842 20.9419 11.5669C21.0592 11.4497 21.125 11.2908 21.125 11.125C21.125 10.9592 21.0592 10.8003 20.9419 10.6831C20.8247 10.5658 20.6658 10.5 20.5 10.5ZM14.25 10.5V9.875H16.75V10.5H14.25Z" fill="white"/>
<path d="M14.875 18.625V14.25C14.875 14.0842 14.8092 13.9253 14.6919 13.8081C14.5747 13.6908 14.4158 13.625 14.25 13.625C14.0842 13.625 13.9253 13.6908 13.8081 13.8081C13.6908 13.9253 13.625 14.0842 13.625 14.25V18.625C13.625 18.7908 13.6908 18.9497 13.8081 19.0669C13.9253 19.1842 14.0842 19.25 14.25 19.25C14.4158 19.25 14.5747 19.1842 14.6919 19.0669C14.8092 18.9497 14.875 18.7908 14.875 18.625Z" fill="white"/>
<path d="M17.375 18.625V14.25C17.375 14.0842 17.3092 13.9253 17.1919 13.8081C17.0747 13.6908 16.9158 13.625 16.75 13.625C16.5842 13.625 16.4253 13.6908 16.3081 13.8081C16.1908 13.9253 16.125 14.0842 16.125 14.25V18.625C16.125 18.7908 16.1908 18.9497 16.3081 19.0669C16.4253 19.1842 16.5842 19.25 16.75 19.25C16.9158 19.25 17.0747 19.1842 17.1919 19.0669C17.3092 18.9497 17.375 18.7908 17.375 18.625Z" fill="white"/>
</svg>
