<svg width="31" height="31" viewBox="0 0 31 31" fill="none" xmlns="http://www.w3.org/2000/svg">
<rect width="31" height="31" rx="15.5" fill="#1546B9"/>
<path d="M17.0087 11.8809C17.8128 12.685 18.5954 13.4747 19.3995 14.2788C19.3493 14.3362 19.2846 14.408 19.2128 14.4798C17.5113 16.1814 15.8169 17.8901 14.101 19.5773C13.8857 19.7855 13.5913 19.9434 13.3113 20.0439C12.6436 20.2665 11.9616 20.446 11.2867 20.6327C10.8703 20.7475 10.5328 20.4316 10.6477 20.008C10.8559 19.2398 11.0857 18.4716 11.3226 17.7034C11.3728 17.5455 11.4805 17.3947 11.5954 17.2727C13.3687 15.4921 15.1421 13.7188 16.9226 11.9383C16.9441 11.9311 16.9728 11.9096 17.0087 11.8809Z" fill="white"/>
<path d="M19.9524 13.726C19.1483 12.9147 18.3585 12.125 17.5903 11.3424C17.9852 10.9332 18.3873 10.4665 18.8396 10.0645C19.3278 9.62651 20.0673 9.65522 20.5698 10.0932C20.7924 10.287 21.0006 10.4952 21.1944 10.7178C21.6396 11.2275 21.6467 11.9957 21.1944 12.4983C20.7996 12.9219 20.3688 13.3096 19.9524 13.726Z" fill="white"/>
</svg>
