<svg width="11" height="11" viewBox="0 0 11 11" fill="none" xmlns="http://www.w3.org/2000/svg">
<path d="M6.43847 2.14913C7.24946 2.96012 8.03874 3.75664 8.84973 4.56764C8.79905 4.62556 8.73388 4.69797 8.66147 4.77038C6.94534 6.48651 5.23646 8.20988 3.50585 9.91152C3.28862 10.1215 2.99173 10.2808 2.70933 10.3822C2.03592 10.6067 1.34802 10.7877 0.667359 10.976C0.247379 11.0918 -0.0929499 10.7732 0.0229068 10.346C0.232897 9.57119 0.46461 8.7964 0.703565 8.02161C0.754252 7.86231 0.862867 7.71025 0.978724 7.58715C2.76726 5.79137 4.5558 4.00283 6.35158 2.20706C6.3733 2.19982 6.40226 2.17809 6.43847 2.14913Z" fill="white"/>
<path d="M9.40735 4.01008C8.59635 3.19184 7.79984 2.39533 7.02505 1.60606C7.42331 1.19332 7.8288 0.72265 8.28499 0.317151C8.77738 -0.124552 9.52321 -0.0955879 10.0301 0.346116C10.2546 0.541624 10.4645 0.751614 10.6601 0.976086C11.109 1.4902 11.1162 2.26499 10.6601 2.77186C10.2618 3.19909 9.82733 3.5901 9.40735 4.01008Z" fill="white"/>
</svg>
