<svg width="16" height="16" viewBox="0 0 16 16" fill="none" xmlns="http://www.w3.org/2000/svg">
<path d="M3.81818 1.5H8.18182C8.66403 1.5 9.12649 1.68022 9.46747 2.001C9.80844 2.32179 10 2.75687 10 3.21053V12.7895C10 13.2431 9.80844 13.6782 9.46747 13.999C9.12649 14.3198 8.66403 14.5 8.18182 14.5H3.81818C3.33597 14.5 2.87351 14.3198 2.53253 13.999C2.19156 13.6782 2 13.2431 2 12.7895V3.21053C2 2.75687 2.19156 2.32179 2.53253 2.001C2.87351 1.68022 3.33597 1.5 3.81818 1.5Z" stroke="#1546B9" stroke-width="1.4" stroke-linecap="round" stroke-linejoin="round"/>
<path d="M4.8999 3.20001H6.4999" stroke="#1546B9" stroke-width="1.2" stroke-linecap="round" stroke-linejoin="round"/>
<path d="M4.99992 9.87458L7.30504 10.1837L14.2112 6.73109L12.9606 4.4394L6.05441 7.89199L4.99992 9.87458Z" stroke="#1546B9" stroke-width="1.4" stroke-linecap="round" stroke-linejoin="round"/>
</svg>
