<svg width="19" height="19" viewBox="0 0 19 19" fill="none" xmlns="http://www.w3.org/2000/svg">
<path fill-rule="evenodd" clip-rule="evenodd" d="M10.9396 3.69423C10.0888 2.99081 8.911 2.99081 8.06027 3.69423L3.79627 7.21971C3.40745 7.54119 3.16659 8.04911 3.16659 8.60249V14.1003C3.16659 15.1037 3.92036 15.8333 4.74992 15.8333H6.33325V13.2587C6.33325 11.4734 7.70612 9.9423 9.49992 9.9423C11.2938 9.9423 12.6666 11.4734 12.6666 13.2587V15.8333H14.2499C15.0795 15.8333 15.8333 15.1037 15.8333 14.1003V8.60249C15.8333 8.04911 15.5924 7.54119 15.2036 7.21972L10.9396 3.69423ZM11.9485 2.47397L16.2125 5.99946C16.9807 6.63463 17.4166 7.59766 17.4166 8.60249V14.1003C17.4166 15.8856 16.0438 17.4167 14.2499 17.4167H12.6666C11.7921 17.4167 11.0833 16.7078 11.0833 15.8333V13.2587C11.0833 12.2552 10.3295 11.5256 9.49992 11.5256C8.67033 11.5256 7.91659 12.2552 7.91659 13.2587V15.8333C7.91659 16.7078 7.2077 17.4167 6.33325 17.4167H4.74992C2.95612 17.4167 1.58325 15.8856 1.58325 14.1003V8.60249C1.58325 7.59766 2.01914 6.63463 2.78735 5.99946L7.05132 2.47397C8.48761 1.28645 10.5122 1.28645 11.9485 2.47397Z" fill="white"/>
</svg>
