<svg width="13" height="13" viewBox="0 0 13 13" fill="none" xmlns="http://www.w3.org/2000/svg">
<g clip-path="url(#clip0_14_296)">
<path d="M9.19141 0H3.80859C1.70523 0 0 1.70523 0 3.80859V9.19141C0 11.2948 1.70523 13 3.80859 13H9.19141C11.2948 13 13 11.2948 13 9.19141V3.80859C13 1.70523 11.2948 0 9.19141 0ZM10.1816 6.5C10.1816 6.85064 9.89752 7.13477 9.54688 7.13477H7.13477V9.54688C7.13477 9.89752 6.85064 10.1816 6.5 10.1816C6.14936 10.1816 5.86523 9.89752 5.86523 9.54688V7.13477H3.45312C3.10248 7.13477 2.81836 6.85064 2.81836 6.5C2.81836 6.14936 3.10248 5.86523 3.45312 5.86523H5.86523V3.45312C5.86523 3.10248 6.14936 2.81836 6.5 2.81836C6.85064 2.81836 7.13477 3.10248 7.13477 3.45312V5.86523H9.54688C9.89752 5.86523 10.1816 6.14936 10.1816 6.5Z" fill="white"/>
</g>
<defs>
<clipPath id="clip0_14_296">
<rect width="13" height="13" fill="white"/>
</clipPath>
</defs>
</svg>
