<svg width="10" height="11" viewBox="0 0 10 11" fill="none" xmlns="http://www.w3.org/2000/svg">
<path d="M7.5641 3.33333C7.77651 3.33333 7.94872 3.16113 7.94872 2.94872C7.94872 2.7363 7.77651 2.5641 7.5641 2.5641V3.33333ZM2.4359 2.5641C2.22348 2.5641 2.05128 2.7363 2.05128 2.94872C2.05128 3.16113 2.22348 3.33333 2.4359 3.33333V2.5641ZM7.5641 2.5641H2.4359V3.33333H7.5641V2.5641Z" fill="black"/>
<path d="M7.5641 5.38462C7.77651 5.38462 7.94872 5.21241 7.94872 5C7.94872 4.78759 7.77651 4.61538 7.5641 4.61538V5.38462ZM2.4359 4.61538C2.22348 4.61538 2.05128 4.78759 2.05128 5C2.05128 5.21241 2.22348 5.38462 2.4359 5.38462V4.61538ZM7.5641 4.61538H2.4359V5.38462H7.5641V4.61538Z" fill="black"/>
<path d="M5 7.4359C5.21241 7.4359 5.38462 7.26369 5.38462 7.05128C5.38462 6.83887 5.21241 6.66667 5 6.66667V7.4359ZM2.4359 6.66667C2.22348 6.66667 2.05128 6.83887 2.05128 7.05128C2.05128 7.26369 2.22348 7.4359 2.4359 7.4359V6.66667ZM5 6.66667H2.4359V7.4359H5V6.66667Z" fill="black"/>
<path d="M1.41026 0.769231H8.58974V0H1.41026V0.769231ZM9.23077 1.41026V9.18169H10V1.41026H9.23077ZM8.37261 9.78487L7.57169 9.49651L7.31118 10.2203L8.11205 10.5086L8.37261 9.78487ZM6.51533 9.53738L5.26308 10.1009L5.57872 10.8024L6.83097 10.2389L6.51533 9.53738ZM4.73692 10.1009L3.48469 9.53738L3.16903 10.2389L4.42128 10.8024L4.73692 10.1009ZM2.42829 9.49651L1.62738 9.78487L1.88794 10.5086L2.68884 10.2203L2.42829 9.49651ZM0.769231 9.18169V1.41026H0V9.18169H0.769231ZM1.62738 9.78487C1.20965 9.93523 0.769231 9.62569 0.769231 9.18169H0C0 10.1585 0.968928 10.8394 1.88794 10.5086L1.62738 9.78487ZM3.48469 9.53738C3.15117 9.38728 2.7724 9.37267 2.42829 9.49651L2.68884 10.2203C2.84526 10.1639 3.01743 10.1706 3.16903 10.2389L3.48469 9.53738ZM5.26308 10.1009C5.09574 10.1762 4.90426 10.1762 4.73692 10.1009L4.42128 10.8024C4.78933 10.968 5.21067 10.968 5.57872 10.8024L5.26308 10.1009ZM7.57169 9.49651C7.22759 9.37267 6.84882 9.38728 6.51533 9.53738L6.83097 10.2389C6.98256 10.1706 7.15472 10.1639 7.31118 10.2203L7.57169 9.49651ZM9.23077 9.18169C9.23077 9.62569 8.79036 9.93523 8.37261 9.78487L8.11205 10.5086C9.03108 10.8394 10 10.1585 10 9.18169H9.23077ZM8.58974 0.769231C8.94379 0.769231 9.23077 1.05623 9.23077 1.41026H10C10 0.631395 9.36862 0 8.58974 0V0.769231ZM1.41026 0C0.631395 0 0 0.631395 0 1.41026H0.769231C0.769231 1.05623 1.05623 0.769231 1.41026 0.769231V0Z" fill="black"/>
</svg>
