<svg width="26" height="25" viewBox="0 0 26 25" fill="none" xmlns="http://www.w3.org/2000/svg">
<rect x="0.5" y="0.5" width="25" height="24" rx="12" fill="white"/>
<rect x="0.5" y="0.5" width="25" height="24" rx="12" stroke="#E8E8E8"/>
<g clip-path="url(#clip0_22_1306)">
<path d="M7.625 12C7.625 10.7071 8.13861 9.46709 9.05285 8.55285C9.96709 7.63861 11.2071 7.125 12.5 7.125C13.8629 7.13013 15.171 7.66191 16.1508 8.60917L17.375 9.83333" stroke="#838383" stroke-width="1.5" stroke-linecap="round" stroke-linejoin="round"/>
<path d="M17.3753 7.125V9.83333H14.667" stroke="#838383" stroke-width="1.5" stroke-linecap="round" stroke-linejoin="round"/>
<path d="M17.375 12C17.375 13.2929 16.8614 14.5329 15.9471 15.4471C15.0329 16.3614 13.7929 16.875 12.5 16.875C11.1371 16.8699 9.82903 16.3381 8.84917 15.3908L7.625 14.1667" stroke="#838383" stroke-width="1.5" stroke-linecap="round" stroke-linejoin="round"/>
<path d="M10.3333 14.1667H7.625V16.8751" stroke="#838383" stroke-width="1.5" stroke-linecap="round" stroke-linejoin="round"/>
</g>
<defs>
<clipPath id="clip0_22_1306">
<rect width="13" height="13" fill="white" transform="translate(6 5.5)"/>
</clipPath>
</defs>
</svg>
