<svg width="16" height="16" viewBox="0 0 16 16" fill="none" xmlns="http://www.w3.org/2000/svg">
<path d="M2.8999 7.32532C3.12404 6.24451 3.71383 5.27397 4.56992 4.5772C5.42602 3.88043 6.4961 3.5 7.5999 3.5C8.70371 3.5 9.77379 3.88043 10.6299 4.5772C11.486 5.27397 12.0758 6.24451 12.2999 7.32532" stroke="#1546B9" stroke-width="1.4" stroke-linecap="round" stroke-linejoin="round"/>
<path d="M2.8 6.92535C3.01217 6.92535 3.21566 7.00964 3.36569 7.15967C3.51571 7.3097 3.6 7.51318 3.6 7.72535V9.42535C3.6 9.63753 3.51571 9.84101 3.36569 9.99104C3.21566 10.1411 3.01217 10.2254 2.8 10.2254C2.58783 10.2254 2.38434 10.1411 2.23431 9.99104C2.08429 9.84101 2 9.63753 2 9.42535V7.72535C2 7.51318 2.08429 7.3097 2.23431 7.15967C2.38434 7.00964 2.58783 6.92535 2.8 6.92535Z" stroke="#1546B9" stroke-width="1.4" stroke-linecap="round" stroke-linejoin="round"/>
<path d="M12.4001 6.92535C12.6123 6.92535 12.8158 7.00964 12.9658 7.15967C13.1158 7.3097 13.2001 7.51318 13.2001 7.72535V9.42535C13.2001 9.63753 13.1158 9.84101 12.9658 9.99104C12.8158 10.1411 12.6123 10.2254 12.4001 10.2254C12.1879 10.2254 11.9844 10.1411 11.8344 9.99104C11.6844 9.84101 11.6001 9.63753 11.6001 9.42535V7.72535C11.6001 7.51318 11.6844 7.3097 11.8344 7.15967C11.9844 7.00964 12.1879 6.92535 12.4001 6.92535Z" stroke="#1546B9" stroke-width="1.4" stroke-linecap="round" stroke-linejoin="round"/>
<path d="M2.80005 10.2253V11.2253C2.80005 11.6497 2.96862 12.0567 3.26868 12.3567C3.56874 12.6568 3.9757 12.8253 4.40005 12.8253H5.60005" stroke="#1546B9" stroke-width="1.4" stroke-linecap="round" stroke-linejoin="round"/>
<path d="M5.6001 12.8253H5.6101" stroke="#1546B9" stroke-width="2" stroke-linecap="round" stroke-linejoin="round"/>
</svg>
