<svg width="148" height="31" viewBox="0 0 148 31" fill="none" xmlns="http://www.w3.org/2000/svg">
<path d="M14.7036 23.375C19.5105 23.375 23.4072 19.497 23.4072 14.7132C23.4072 9.92948 19.5105 6.05147 14.7036 6.05147C9.89674 6.05147 6 9.92948 6 14.7132C6 19.497 9.89674 23.375 14.7036 23.375Z" stroke="#1546B9" stroke-width="2"/>
<path d="M21.3457 24.9706C27.1646 24.9706 31.8817 20.2761 31.8817 14.4853C31.8817 8.69445 27.1646 4 21.3457 4C15.5269 4 10.8098 8.69445 10.8098 14.4853C10.8098 20.2761 15.5269 24.9706 21.3457 24.9706Z" stroke="#FB7185" stroke-width="2"/>
<path d="M38.1345 22.4632V7.69265H43.9682C44.9096 7.69265 45.6998 7.88412 46.3388 8.26706C46.9778 8.65 47.4588 9.14577 47.7818 9.75438C48.1047 10.3561 48.2662 10.9921 48.2662 11.6622C48.2662 12.476 48.0635 13.1735 47.6581 13.7547C47.2596 14.336 46.7202 14.7326 46.0399 14.9446L46.0193 14.442C46.9675 14.6745 47.6959 15.1292 48.2043 15.8062C48.7128 16.4764 48.9671 17.2593 48.9671 18.1551C48.9671 19.0236 48.7918 19.7792 48.4414 20.422C48.0978 21.0648 47.5928 21.5674 46.9263 21.9299C46.2667 22.2854 45.4662 22.4632 44.5248 22.4632H38.1345ZM40.3196 20.422H44.195C44.6828 20.422 45.1192 20.3297 45.5039 20.1451C45.8956 19.9604 46.2014 19.6972 46.4213 19.3553C46.648 19.0065 46.7614 18.5928 46.7614 18.1141C46.7614 17.6696 46.6618 17.2696 46.4625 16.914C46.2701 16.5516 45.9884 16.2678 45.6173 16.0626C45.2531 15.8507 44.8237 15.7447 44.329 15.7447H40.3196V20.422ZM40.3196 13.724H43.9373C44.3358 13.724 44.6931 13.6453 45.0092 13.4881C45.3322 13.3239 45.5864 13.0914 45.7719 12.7906C45.9643 12.4828 46.0605 12.1136 46.0605 11.6828C46.0605 11.1083 45.8681 10.6365 45.4833 10.2672C45.0985 9.89798 44.5832 9.71335 43.9373 9.71335H40.3196V13.724ZM55.9554 22.771C54.8491 22.771 53.8766 22.5316 53.0383 22.0529C52.2069 21.5674 51.5577 20.8939 51.09 20.0322C50.6301 19.1638 50.3997 18.1586 50.3997 17.0166C50.3997 15.8062 50.6265 14.7565 51.08 13.8676C51.5403 12.9786 52.1794 12.2914 52.9971 11.8058C53.8147 11.3203 54.7666 11.0776 55.8523 11.0776C56.986 11.0776 57.9512 11.3408 58.7483 11.8674C59.5454 12.3871 60.1399 13.129 60.5316 14.0932C60.9301 15.0574 61.0882 16.2028 61.0057 17.5295H58.8514V16.7499C58.8376 15.4643 58.5903 14.5138 58.1093 13.8983C57.6351 13.2829 56.9105 12.9752 55.9347 12.9752C54.856 12.9752 54.0451 13.3137 53.5023 13.9907C52.9595 14.6676 52.6878 15.6455 52.6878 16.9243C52.6878 18.1415 52.9595 19.0851 53.5023 19.7553C54.0451 20.4186 54.8285 20.7503 55.8523 20.7503C56.5257 20.7503 57.1061 20.5998 57.5939 20.2989C58.0886 19.9912 58.4734 19.5536 58.7483 18.986L60.8614 19.6527C60.4285 20.6443 59.7721 21.4136 58.8926 21.9606C58.0131 22.5008 57.0341 22.771 55.9554 22.771ZM51.987 17.5295V15.8575H59.9334V17.5295H51.987ZM63.3181 22.4632V7.69265H65.2659L70.6461 18.8014L75.9956 7.69265H77.964V22.453H75.9232V12.3495L71.1308 22.4632H70.1514L65.3484 12.3495V22.4632H63.3181ZM85.7885 22.771C84.6822 22.771 83.7102 22.5316 82.8719 22.0529C82.0405 21.5674 81.3909 20.8939 80.9237 20.0322C80.4633 19.1638 80.2333 18.1586 80.2333 17.0166C80.2333 15.8062 80.4601 14.7565 80.9136 13.8676C81.374 12.9786 82.013 12.2914 82.8307 11.8058C83.6483 11.3203 84.5998 11.0776 85.6854 11.0776C86.8192 11.0776 87.7848 11.3408 88.5819 11.8674C89.379 12.3871 89.9731 13.129 90.3648 14.0932C90.7633 15.0574 90.9213 16.2028 90.8389 17.5295H88.685V16.7499C88.6712 15.4643 88.4239 14.5138 87.9429 13.8983C87.4688 13.2829 86.7436 12.9752 85.7679 12.9752C84.6891 12.9752 83.8783 13.3137 83.3355 13.9907C82.7927 14.6676 82.5215 15.6455 82.5215 16.9243C82.5215 18.1415 82.7927 19.0851 83.3355 19.7553C83.8783 20.4186 84.6616 20.7503 85.6854 20.7503C86.3588 20.7503 86.9397 20.5998 87.4275 20.2989C87.9223 19.9912 88.3071 19.5536 88.5819 18.986L90.6946 19.6527C90.2617 20.6443 89.6057 21.4136 88.7262 21.9606C87.8467 22.5008 86.8673 22.771 85.7885 22.771ZM81.8206 17.5295V15.8575H89.767V17.5295H81.8206ZM106.187 22.4632L106.197 15.56C106.197 14.76 105.991 14.1377 105.579 13.6932C105.166 13.2419 104.624 13.0162 103.95 13.0162C103.538 13.0162 103.16 13.112 102.816 13.3034C102.48 13.4881 102.205 13.7684 101.992 14.1445C101.786 14.5138 101.683 14.9788 101.683 15.5395L100.641 15.0164C100.628 14.2368 100.793 13.553 101.136 12.9649C101.487 12.3768 101.961 11.9221 102.559 11.6007C103.156 11.2725 103.826 11.1083 104.569 11.1083C105.771 11.1083 106.702 11.4674 107.362 12.1854C108.021 12.9034 108.351 13.8573 108.351 15.0472L108.341 22.4632H106.187ZM92.8393 22.4632V11.3853H94.7564V14.5856H95.0038V22.4632H92.8393ZM99.5182 22.4632L99.5283 15.6011C99.5283 14.7942 99.3221 14.1616 98.9099 13.7035C98.5045 13.2453 97.9584 13.0162 97.2713 13.0162C96.5911 13.0162 96.0413 13.2487 95.6222 13.7137C95.2099 14.1787 95.0038 14.7873 95.0038 15.5395L93.9731 14.8831C93.9731 14.1582 94.1481 13.512 94.4985 12.9444C94.849 12.3768 95.3231 11.9289 95.9209 11.6007C96.5187 11.2725 97.1957 11.1083 97.9516 11.1083C98.7418 11.1083 99.4151 11.2759 99.9717 11.611C100.528 11.9392 100.951 12.4008 101.239 12.9957C101.535 13.5906 101.683 14.2813 101.683 15.0677L101.672 22.4632H99.5182ZM116.253 22.771C115.188 22.771 114.295 22.5145 113.573 22.0017C112.852 21.482 112.306 20.781 111.935 19.8989C111.564 19.0168 111.378 18.0218 111.378 16.914C111.378 15.8062 111.56 14.8113 111.924 13.9291C112.295 13.047 112.838 12.3529 113.553 11.8469C114.274 11.334 115.16 11.0776 116.212 11.0776C117.256 11.0776 118.156 11.334 118.912 11.8469C119.675 12.3529 120.263 13.047 120.675 13.9291C121.087 14.8044 121.293 15.7994 121.293 16.914C121.293 18.0218 121.087 19.0202 120.675 19.9092C120.269 20.7913 119.689 21.4888 118.933 22.0017C118.184 22.5145 117.29 22.771 116.253 22.771ZM111.017 22.4632V7.69265H113.181V14.4933H112.934V22.4632H111.017ZM115.954 20.8323C116.641 20.8323 117.208 20.6579 117.655 20.3092C118.108 19.9604 118.445 19.492 118.665 18.9039C118.891 18.309 119.005 17.6457 119.005 16.914C119.005 16.1892 118.891 15.5327 118.665 14.9446C118.445 14.3565 118.105 13.8881 117.645 13.5393C117.184 13.1906 116.596 13.0162 115.882 13.0162C115.208 13.0162 114.652 13.1803 114.212 13.5086C113.779 13.8368 113.456 14.295 113.243 14.8831C113.037 15.4711 112.934 16.1481 112.934 16.914C112.934 17.6799 113.037 18.3569 113.243 18.945C113.449 19.5331 113.776 19.9946 114.223 20.3297C114.669 20.6648 115.247 20.8323 115.954 20.8323ZM128.506 22.771C127.399 22.771 126.427 22.5316 125.589 22.0529C124.758 21.5674 124.108 20.8939 123.641 20.0322C123.181 19.1638 122.951 18.1586 122.951 17.0166C122.951 15.8062 123.177 14.7565 123.631 13.8676C124.091 12.9786 124.73 12.2914 125.548 11.8058C126.366 11.3203 127.317 11.0776 128.403 11.0776C129.536 11.0776 130.502 11.3408 131.299 11.8674C132.096 12.3871 132.69 13.129 133.082 14.0932C133.481 15.0574 133.639 16.2028 133.556 17.5295H131.402V16.7499C131.388 15.4643 131.141 14.5138 130.66 13.8983C130.186 13.2829 129.461 12.9752 128.485 12.9752C127.406 12.9752 126.596 13.3137 126.053 13.9907C125.51 14.6676 125.239 15.6455 125.239 16.9243C125.239 18.1415 125.51 19.0851 126.053 19.7553C126.596 20.4186 127.379 20.7503 128.403 20.7503C129.076 20.7503 129.657 20.5998 130.145 20.2989C130.64 19.9912 131.024 19.5536 131.299 18.986L133.412 19.6527C132.979 20.6443 132.323 21.4136 131.443 21.9606C130.564 22.5008 129.585 22.771 128.506 22.771ZM124.538 17.5295V15.8575H132.484V17.5295H124.538ZM135.869 22.4632V11.3853H137.786V14.0727L137.518 13.724C137.655 13.3684 137.834 13.0436 138.054 12.7495C138.273 12.4486 138.528 12.2025 138.816 12.011C139.098 11.8058 139.411 11.6486 139.754 11.5392C140.105 11.4229 140.462 11.3545 140.826 11.334C141.191 11.3067 141.541 11.3238 141.878 11.3853V13.3957C141.514 13.3 141.108 13.2726 140.661 13.3137C140.222 13.3547 139.816 13.4949 139.445 13.7342C139.095 13.9599 138.816 14.2334 138.61 14.5548C138.411 14.8762 138.267 15.2352 138.177 15.6318C138.088 16.0216 138.044 16.4353 138.044 16.873V22.4632H135.869Z" fill="#1546B9"/>
</svg>
